# xmcd
#
# Track frame offsets:
#	150
#	18751
#	45076
#	72117
#	91290
#	121337
#	145553
#	171395
#	188894
#	211952
#	235170
#
# Disc length: 3542 seconds
#
# Revision: 510386384
# Processed by: cddbd v1.5.2PL0 Copyright (c) Steve Scherf et al.
# Submitted via: EZCDAudioConverter 8.0.2.1
#
DISCID=870dd40b
DTITLE=Đàm Vĩnh Hưng - Tình Ơi Xin Ngủ Yên
DYEAR=2001
DGENRE=
TTITLE0=Say tình
TTITLE1=Nỗi nhớ
TTITLE2=Tình Ơi Xin Ngủ Yên
TTITLE3=Dịu dàng sắc xuân
TTITLE4=Chút nắng cho mùa đông
TTITLE5=Anh vẫn biết
TTITLE6=Tình thơ
TTITLE7=Sẽ yêu
TTITLE8=Dã tràng
TTITLE9=Góc phố rêu xanh
TTITLE10=Cho em một ngày
EXTD=
EXTT0=
EXTT1=
EXTT2=
EXTT3=
EXTT4=
EXTT5=
EXTT6=
EXTT7=
EXTT8=
EXTT9=
EXTT10=
PLAYORDER=
